<svg xmlns="http://www.w3.org/2000/svg" width="495" height="238" viewBox="0 0 495 238" role="img" aria-labelledby="card-title">
  <title id="card-title">ShipCard Stats</title>
  <style>
    text { font-family: 'Segoe UI', Ubuntu, 'Helvetica Neue', Sans-Serif; }
  </style>
  <rect width="495" height="238" rx="4.5" fill="#0d1117" stroke="#30363d" stroke-width="1"/>
  <text x="20" y="35" font-size="18" font-weight="600" fill="#e6edf3">ShipCard Stats</text>
  <text x="20" y="60" font-size="12" fill="#8b949e">Since today</text>
<svg x="20" y="82" width="16" height="16" viewBox="0 0 24 24" fill="none" stroke="#58a6ff" stroke-width="2" stroke-linecap="round" stroke-linejoin="round"><path d="M8 3H5a2 2 0 0 0-2 2v3m18 0V5a2 2 0 0 0-2-2h-3m0 18h3a2 2 0 0 0 2-2v-3M3 16v3a2 2 0 0 0 2 2h3"/></svg>
  <text x="44" y="96" font-size="13" fill="#8b949e">Sessions</text>
  <text x="475" y="96" font-size="13" font-weight="600" text-anchor="end" fill="#e6edf3">14</text>
<svg x="20" y="112" width="16" height="16" viewBox="0 0 24 24" fill="none" stroke="#58a6ff" stroke-width="2" stroke-linecap="round" stroke-linejoin="round"><path d="M14.7 6.3a1 1 0 0 0 0 1.4l1.6 1.6a1 1 0 0 0 1.4 0l3.77-3.77a6 6 0 0 1-7.94 7.94l-6.91 6.91a2.12 2.12 0 0 1-3-3l6.91-6.91a6 6 0 0 1 7.94-7.94l-3.76 3.76z"/></svg>
  <text x="44" y="126" font-size="13" fill="#8b949e">Tool Calls</text>
  <text x="475" y="126" font-size="13" font-weight="600" text-anchor="end" fill="#e6edf3">1.1k</text>
<svg x="20" y="142" width="16" height="16" viewBox="0 0 24 24" fill="none" stroke="#58a6ff" stroke-width="2" stroke-linecap="round" stroke-linejoin="round"><path d="M9 3H5a2 2 0 0 0-2 2v4m6-6h10a2 2 0 0 1 2 2v4M9 3v18m0 0h10a2 2 0 0 0 2-2V9M9 21H5a2 2 0 0 1-2-2V9m0 0h18"/></svg>
  <text x="44" y="156" font-size="13" fill="#8b949e">Models</text>
  <text x="475" y="156" font-size="13" font-weight="600" text-anchor="end" fill="#e6edf3">claude-haiku-4-5-20251001, claude-opus-…</text>
<svg x="20" y="172" width="16" height="16" viewBox="0 0 24 24" fill="none" stroke="#58a6ff" stroke-width="2" stroke-linecap="round" stroke-linejoin="round"><path d="M22 19a2 2 0 0 1-2 2H4a2 2 0 0 1-2-2V5a2 2 0 0 1 2-2h5l2 3h9a2 2 0 0 1 2 2z"/></svg>
  <text x="44" y="186" font-size="13" fill="#8b949e">Projects</text>
  <text x="475" y="186" font-size="13" font-weight="600" text-anchor="end" fill="#e6edf3">5</text>
  <text x="247.5" y="228" font-size="10" text-anchor="middle" opacity="0.6" fill="#8b949e">ShipCard</text>
</svg>